<?xml version="1.0" encoding="UTF-8"?>
<svg id="Layer_1" data-name="Layer 1" xmlns="http://www.w3.org/2000/svg" viewBox="0 0 1000 1000">
  <defs>
    <style>
      .cls-1 {
        fill: #484848;
      }
    </style>
  </defs>
  <path id="Icon_awesome-star" data-name="Icon awesome-star" class="cls-1" d="M445.34,55.79l-121.8,246.94L51.04,342.47c-32.63,4.8-55.19,35.15-50.39,67.78,1.91,12.95,8.01,24.92,17.38,34.06l197.16,192.1-46.59,271.34c-5.55,32.47,16.28,63.3,48.75,68.85,12.91,2.21,26.19,.1,37.79-5.99l243.78-128.13,243.78,128.13c29.23,15.25,65.29,3.93,80.54-25.3,6-11.5,8.1-24.65,5.96-37.45l-46.59-271.34,197.12-192.21c23.61-23.03,24.08-60.84,1.04-84.45-9.14-9.37-21.11-15.48-34.06-17.38l-272.5-39.74-121.8-246.94c-14.64-29.56-50.48-41.66-80.04-27.01-11.72,5.8-21.21,15.29-27.01,27.01Z"/>
</svg>