<?xml version="1.0" encoding="UTF-8"?>
<svg id="Layer_1" data-name="Layer 1" xmlns="http://www.w3.org/2000/svg" viewBox="0 0 1200 391.43">
  <defs>
    <style>
      .cls-1 {
        fill: #ffa727;
      }

      .cls-2, .cls-3 {
        fill: #f33;
      }

      .cls-3 {
        opacity: .5;
      }
    </style>
  </defs>
  <path class="cls-1" d="M1200,391.43H0V118.96S196.07,52.7,442.58,67.81c260.91,16,427.91,110.45,427.91,110.45"/>
  <g>
    <path class="cls-3" d="M870.49,178.27c90.42-24.68,167.29-15.04,186-11.33,68.24,13.53,117.12,43.5,143.51,62.49v162H465.45c105.55-94.93,221-162.93,405.04-213.16Z"/>
    <path class="cls-2" d="M870.49,178.27c89.13-29.02,167.29-15.04,186-11.33,68.24,13.53,117.12,43.5,143.51,62.49v162h-500.35s25.35-69.99,69.46-129c44.49-59.51,101.38-84.16,101.38-84.16Z"/>
  </g>
</svg>