<?xml version="1.0" encoding="UTF-8"?>
<svg id="Layer_1" data-name="Layer 1" xmlns="http://www.w3.org/2000/svg" viewBox="0 0 1000 1000">
  <defs>
    <style>
      .cls-1 {
        fill: #db4a4a;
      }
    </style>
  </defs>
  <path id="Icon_awesome-twitter" data-name="Icon awesome-twitter" class="cls-1" d="M897.21,304.77c.63,8.89,.63,17.77,.63,26.66,0,270.94-206.22,583.11-583.11,583.11-111.58,.29-220.87-31.66-314.72-92,16.42,1.81,32.92,2.66,49.44,2.54,92.26,.24,181.91-30.6,254.49-87.56-87.67-1.6-164.65-58.7-191.62-142.14,12.82,2.03,25.78,3.09,38.76,3.17,18.19-.07,36.29-2.43,53.89-7.02-95.67-19.35-164.43-103.48-164.35-201.1v-2.54c28.39,15.84,60.12,24.75,92.6,26.01C42.91,353.69,15.11,233.57,69.76,139.79c104.11,128.15,257.71,206.1,422.61,214.47-3.29-15.44-4.99-31.17-5.08-46.95,.11-113.3,92.04-205.06,205.34-204.95,56.58,.05,110.63,23.47,149.36,64.72,45.9-8.82,89.91-25.55,130.08-49.44-15.28,47.36-47.32,87.52-90.1,112.94,40.7-4.63,80.48-15.32,118.02-31.72-28.06,40.85-62.81,76.68-102.79,105.97v-.05Z"/>
</svg>